<svg width="195" height="39" viewBox="0 0 195 39" fill="none" xmlns="http://www.w3.org/2000/svg">
<path d="M3.68945 16.6406C3.68945 18.75 3.92969 20.5898 4.41016 22.1602C4.89062 23.7305 5.52344 25.0371 6.30859 26.0801C7.10547 27.123 8.00781 27.9082 9.01562 28.4355C10.0352 28.9512 11.0781 29.209 12.1445 29.209C12.9062 29.209 13.6562 29.0684 14.3945 28.7871C15.1445 28.5059 15.8711 28.084 16.5742 27.5215C17.2773 26.959 17.9512 26.2559 18.5957 25.4121C19.252 24.5684 19.8613 23.5781 20.4238 22.4414L20.6172 22.0723L21.3379 22.6172L21.1445 22.9863C20.5 24.2871 19.7852 25.4297 19 26.4141C18.2266 27.3984 17.4004 28.2246 16.5215 28.8926C15.6426 29.5488 14.7285 30.0469 13.7793 30.3867C12.8418 30.7266 11.8809 30.8965 10.8965 30.8965C10.0527 30.8965 9.21484 30.7734 8.38281 30.5273C7.5625 30.293 6.77734 29.9355 6.02734 29.4551C5.28906 28.9629 4.59766 28.3477 3.95312 27.6094C3.32031 26.8711 2.76953 26.0098 2.30078 25.0254C1.83203 24.0293 1.46289 22.9102 1.19336 21.668C0.935547 20.4141 0.806641 19.0371 0.806641 17.5371C0.806641 15.5566 0.970703 13.7637 1.29883 12.1582C1.63867 10.541 2.08984 9.10547 2.65234 7.85156C3.22656 6.58594 3.88867 5.49023 4.63867 4.56445C5.40039 3.63867 6.19727 2.87695 7.0293 2.2793C7.86133 1.66992 8.71094 1.21875 9.57812 0.925781C10.4453 0.632812 11.2773 0.486328 12.0742 0.486328C13.1172 0.486328 14.0781 0.667969 14.957 1.03125C15.8359 1.38281 16.5918 1.88672 17.2246 2.54297C17.8574 3.1875 18.3496 3.97852 18.7012 4.91602C19.0645 5.8418 19.2461 6.87305 19.2461 8.00977C19.2461 9.09961 19.0762 10.125 18.7363 11.0859C18.4082 12.0469 17.9629 12.8906 17.4004 13.6172C16.8496 14.332 16.2109 14.9004 15.4844 15.3223C14.7695 15.7441 14.0195 15.9551 13.2344 15.9551C12.707 15.9551 12.2148 15.8613 11.7578 15.6738C11.3008 15.4863 10.9023 15.2227 10.5625 14.8828C10.2227 14.543 9.95312 14.127 9.75391 13.6348C9.55469 13.1426 9.45508 12.5977 9.45508 12C9.45508 11.4258 9.54297 10.875 9.71875 10.3477C9.89453 9.80859 10.1172 9.31641 10.3867 8.87109C10.6562 8.41406 10.9492 8.01562 11.2656 7.67578C11.5938 7.32422 11.9102 7.04883 12.2148 6.84961L12.6895 7.32422C12.4434 7.60547 12.209 7.91016 11.9863 8.23828C11.7754 8.55469 11.5879 8.90039 11.4238 9.27539C11.2598 9.63867 11.1309 10.0312 11.0371 10.4531C10.9434 10.875 10.8965 11.332 10.8965 11.8242C10.8965 12.3281 10.9551 12.7793 11.0723 13.1777C11.2012 13.5762 11.3711 13.916 11.582 14.1973C11.8047 14.4785 12.0566 14.6953 12.3379 14.8477C12.6191 14.9883 12.918 15.0586 13.2344 15.0586C13.668 15.0586 14.1016 14.9004 14.5352 14.584C14.9688 14.2559 15.3555 13.7812 15.6953 13.1602C16.0352 12.5273 16.3105 11.7539 16.5215 10.8398C16.7324 9.92578 16.8379 8.87109 16.8379 7.67578C16.8379 6.59766 16.7148 5.66602 16.4688 4.88086C16.2344 4.08398 15.9062 3.42773 15.4844 2.91211C15.0625 2.39648 14.5645 2.01562 13.9902 1.76953C13.416 1.51172 12.8008 1.38281 12.1445 1.38281C11.6758 1.38281 11.1426 1.48828 10.5449 1.69922C9.94727 1.89844 9.33203 2.23242 8.69922 2.70117C8.07812 3.16992 7.46875 3.79102 6.87109 4.56445C6.27344 5.32617 5.73438 6.27539 5.25391 7.41211C4.78516 8.53711 4.4043 9.86133 4.11133 11.3848C3.83008 12.9082 3.68945 14.6602 3.68945 16.6406Z" fill="white"/>
<path d="M31.2695 25.6406C31.2695 26.3086 31.3281 26.8711 31.4453 27.3281C31.5625 27.7852 31.7676 28.0137 32.0605 28.0137C32.2363 28.0137 32.4238 27.9316 32.623 27.7676C32.834 27.5918 33.0742 27.3105 33.3438 26.9238C33.6133 26.5371 33.918 26.0391 34.2578 25.4297C34.6094 24.8086 35.0078 24.0527 35.4531 23.1621L35.9805 22.0723L36.7012 22.6172L36.1738 23.707C35.6816 24.6914 35.2188 25.5762 34.7852 26.3613C34.3633 27.1348 33.959 27.791 33.5723 28.3301C33.1855 28.8691 32.8047 29.2852 32.4297 29.5781C32.0664 29.8594 31.7031 30 31.3398 30C30.9531 30 30.625 29.8945 30.3555 29.6836C30.0977 29.4727 29.8809 29.1855 29.7051 28.8223C29.5293 28.4473 29.3945 28.0195 29.3008 27.5391C29.207 27.0469 29.1426 26.5254 29.1074 25.9746C28.8262 26.5371 28.5156 27.0645 28.1758 27.5566C27.8359 28.0371 27.4785 28.459 27.1035 28.8223C26.7402 29.1855 26.3594 29.4727 25.9609 29.6836C25.5625 29.8945 25.1641 30 24.7656 30C24.1797 30 23.6113 29.877 23.0605 29.6309C22.5098 29.3848 22.0176 29.0098 21.584 28.5059C21.1621 28.002 20.8223 27.3691 20.5645 26.6074C20.3066 25.834 20.1777 24.9258 20.1777 23.8828C20.1777 22.6641 20.3359 21.5508 20.6523 20.543C20.9688 19.5234 21.3965 18.6504 21.9355 17.9238C22.4746 17.1855 23.0957 16.6172 23.7988 16.2188C24.502 15.8086 25.2402 15.6035 26.0137 15.6035C26.4824 15.6035 26.916 15.709 27.3145 15.9199C27.7129 16.1309 28.0586 16.3887 28.3516 16.6934C28.6562 16.9863 28.9082 17.3027 29.1074 17.6426C29.3066 17.9707 29.4414 18.252 29.5117 18.4863L29.7227 16.7812C29.7461 16.5586 29.8516 16.3711 30.0391 16.2188C30.2383 16.0664 30.4551 15.9492 30.6895 15.8672C30.9238 15.7734 31.1523 15.709 31.375 15.6738C31.5977 15.627 31.7559 15.6035 31.8496 15.6035C31.9902 15.6035 32.084 15.627 32.1309 15.6738C32.1777 15.7207 32.2012 15.8145 32.2012 15.9551C32.2012 16.1309 32.1484 16.4883 32.043 17.0273C31.9492 17.5547 31.8438 18.2344 31.7266 19.0664C31.6211 19.8867 31.5156 20.8535 31.4102 21.9668C31.3164 23.0801 31.2695 24.3047 31.2695 25.6406ZM29.3359 21C29.3359 20.4609 29.2539 19.9336 29.0898 19.418C28.9258 18.8906 28.7031 18.4277 28.4219 18.0293C28.1406 17.6191 27.8125 17.291 27.4375 17.0449C27.0742 16.7988 26.6875 16.6758 26.2773 16.6758C25.7734 16.6758 25.2988 16.8223 24.8535 17.1152C24.4199 17.3965 24.0391 17.8008 23.7109 18.3281C23.3945 18.8438 23.1426 19.4707 22.9551 20.209C22.7676 20.9355 22.6738 21.7383 22.6738 22.6172C22.6738 24.375 22.9492 25.7168 23.5 26.6426C24.0508 27.5566 24.7832 28.0137 25.6973 28.0137C26.0957 28.0137 26.5059 27.8555 26.9277 27.5391C27.3613 27.2109 27.7539 26.748 28.1055 26.1504C28.4688 25.541 28.7617 24.8027 28.9844 23.9355C29.2188 23.0684 29.3359 22.0898 29.3359 21Z" fill="white"/>
<path d="M46.2461 23.8828C46.2461 24.6797 46.123 25.4473 45.877 26.1855C45.6426 26.9121 45.291 27.5625 44.8223 28.1367C44.3652 28.6992 43.791 29.1504 43.0996 29.4902C42.4199 29.8301 41.6406 30 40.7617 30C40.1289 30 39.5605 29.9004 39.0566 29.7012C38.5645 29.4902 38.1426 29.2148 37.791 28.875C37.4395 28.5234 37.1699 28.1309 36.9824 27.6973C36.7949 27.252 36.7012 26.7949 36.7012 26.3262C36.7012 25.8574 36.7891 25.4238 36.9648 25.0254C37.1523 24.6152 37.3984 24.2695 37.7031 23.9883C38.0195 23.6953 38.377 23.4668 38.7754 23.3027C39.1738 23.1387 39.5957 23.0566 40.041 23.0566C40.3223 23.0566 40.6152 23.0918 40.9199 23.1621V23.6719C40.5449 23.6719 40.1758 23.748 39.8125 23.9004C39.4609 24.0527 39.1445 24.2637 38.8633 24.5332C38.5938 24.791 38.377 25.1074 38.2129 25.4824C38.0488 25.8457 37.9668 26.2383 37.9668 26.6602C37.9668 27.4336 38.2305 28.0547 38.7578 28.5234C39.2969 28.9805 40.0293 29.209 40.9551 29.209C41.4238 29.209 41.8516 29.1211 42.2383 28.9453C42.625 28.7578 42.9531 28.5059 43.2227 28.1895C43.5039 27.8613 43.7148 27.4746 43.8555 27.0293C44.0078 26.584 44.084 26.0977 44.084 25.5703C44.084 25.0664 43.9844 24.5977 43.7852 24.1641C43.5859 23.7305 43.3223 23.3203 42.9941 22.9336C42.666 22.5469 42.291 22.1836 41.8691 21.8438C41.459 21.5039 41.0371 21.1816 40.6035 20.877C40.1816 20.5605 39.7656 20.2559 39.3555 19.9629C38.9453 19.6699 38.5879 19.377 38.2832 19.084L36.5254 22.9863L35.8047 22.4414L37.5977 18.5215C37.1641 18.1113 36.8418 17.7246 36.6309 17.3613C36.4316 16.9863 36.332 16.541 36.332 16.0254C36.332 15.7441 36.3789 15.4805 36.4727 15.2344C36.5781 14.9766 36.7129 14.7598 36.877 14.584C37.0527 14.3965 37.252 14.25 37.4746 14.1445C37.6973 14.0391 37.9316 13.9863 38.1777 13.9863C38.623 13.9863 38.957 14.1152 39.1797 14.373C39.4023 14.6191 39.5137 14.9297 39.5137 15.3047C39.5137 15.4805 39.4961 15.668 39.4609 15.8672C39.4258 16.0547 39.3789 16.248 39.3203 16.4473C39.2734 16.6348 39.2207 16.8105 39.1621 16.9746C39.1152 17.1387 39.0742 17.2793 39.0391 17.3965C39.3906 17.666 39.8125 17.9297 40.3047 18.1875C40.7969 18.4336 41.3066 18.6914 41.834 18.9609C42.373 19.2305 42.9062 19.5234 43.4336 19.8398C43.9609 20.1562 44.4297 20.5078 44.8398 20.8945C45.2617 21.2812 45.6016 21.7207 45.8594 22.2129C46.1172 22.7051 46.2461 23.2617 46.2461 23.8828ZM38.2129 14.7773C38.0488 14.7773 37.9141 14.8359 37.8086 14.9531C37.7148 15.0586 37.668 15.2051 37.668 15.3926C37.668 15.6035 37.7207 15.8379 37.8262 16.0957C37.9316 16.3535 38.1191 16.6055 38.3887 16.8516C38.5059 16.6055 38.5938 16.3652 38.6523 16.1309C38.7227 15.8965 38.7578 15.6621 38.7578 15.4277C38.7578 15.2402 38.7051 15.0879 38.5996 14.9707C38.5059 14.8418 38.377 14.7773 38.2129 14.7773Z" fill="white"/>
<path d="M53.6289 19.9629C53.7695 19.7402 53.8867 19.4648 53.9805 19.1367C54.0859 18.8086 54.1387 18.4805 54.1387 18.1523C54.1387 17.7539 54.0391 17.4082 53.8398 17.1152C53.6406 16.8223 53.2832 16.6758 52.7676 16.6758C52.4277 16.6758 52.082 16.7988 51.7305 17.0449C51.3789 17.291 51.0508 17.6602 50.7461 18.1523C50.4531 18.6445 50.2129 19.2656 50.0254 20.0156C49.8379 20.7656 49.7441 21.6445 49.7441 22.6523C49.7441 23.4492 49.8262 24.1758 49.9902 24.832C50.1543 25.4883 50.3945 26.0508 50.7109 26.5195C51.0273 26.9883 51.4082 27.3574 51.8535 27.627C52.3105 27.8848 52.8203 28.0137 53.3828 28.0137C53.793 28.0137 54.209 27.9082 54.6309 27.6973C55.0645 27.4863 55.498 27.1582 55.9316 26.7129C56.377 26.2676 56.834 25.6934 57.3027 24.9902C57.7715 24.2754 58.252 23.4258 58.7441 22.4414L58.9199 22.0723L59.6406 22.6172L59.4648 22.9863C58.832 24.2402 58.1992 25.3125 57.5664 26.2031C56.9453 27.0938 56.3301 27.8203 55.7207 28.3828C55.1113 28.9453 54.5137 29.3555 53.9277 29.6133C53.3535 29.8711 52.7969 30 52.2578 30C51.4961 30 50.8164 29.8418 50.2188 29.5254C49.6211 29.209 49.1172 28.7812 48.707 28.2422C48.2969 27.6914 47.9805 27.0586 47.7578 26.3438C47.5469 25.6172 47.4414 24.8555 47.4414 24.0586C47.4414 22.793 47.6113 21.6445 47.9512 20.6133C48.3027 19.5703 48.7539 18.6797 49.3047 17.9414C49.8555 17.2031 50.4766 16.6289 51.168 16.2188C51.8594 15.8086 52.5566 15.6035 53.2598 15.6035C53.7988 15.6035 54.25 15.6797 54.6133 15.832C54.9766 15.9844 55.2695 16.1777 55.4922 16.4121C55.7148 16.6465 55.873 16.8984 55.9668 17.168C56.0605 17.4375 56.1074 17.6953 56.1074 17.9414C56.1074 18.1875 56.0547 18.4453 55.9492 18.7148C55.8438 18.9727 55.6855 19.2188 55.4746 19.4531C55.2754 19.6758 55.0352 19.8809 54.7539 20.0684C54.4727 20.2441 54.1562 20.373 53.8047 20.4551L53.6289 19.9629Z" fill="white"/>
<path d="M69.5898 25.6406C69.5898 26.3086 69.6484 26.8711 69.7656 27.3281C69.8828 27.7852 70.0879 28.0137 70.3809 28.0137C70.5566 28.0137 70.7441 27.9316 70.9434 27.7676C71.1543 27.5918 71.3945 27.3105 71.6641 26.9238C71.9336 26.5371 72.2383 26.0391 72.5781 25.4297C72.9297 24.8086 73.3281 24.0527 73.7734 23.1621L74.3008 22.0723L75.0215 22.6172L74.4941 23.707C74.002 24.6914 73.5391 25.5762 73.1055 26.3613C72.6836 27.1348 72.2793 27.791 71.8926 28.3301C71.5059 28.8691 71.125 29.2852 70.75 29.5781C70.3867 29.8594 70.0234 30 69.6602 30C69.2734 30 68.9453 29.8945 68.6758 29.6836C68.418 29.4727 68.2012 29.1855 68.0254 28.8223C67.8496 28.4473 67.7148 28.0195 67.6211 27.5391C67.5273 27.0469 67.4629 26.5254 67.4277 25.9746C67.1465 26.5371 66.8359 27.0645 66.4961 27.5566C66.1562 28.0371 65.7988 28.459 65.4238 28.8223C65.0605 29.1855 64.6797 29.4727 64.2812 29.6836C63.8828 29.8945 63.4844 30 63.0859 30C62.5 30 61.9316 29.877 61.3809 29.6309C60.8301 29.3848 60.3379 29.0098 59.9043 28.5059C59.4824 28.002 59.1426 27.3691 58.8848 26.6074C58.627 25.834 58.498 24.9258 58.498 23.8828C58.498 22.6641 58.6562 21.5508 58.9727 20.543C59.2891 19.5234 59.7168 18.6504 60.2559 17.9238C60.7949 17.1855 61.416 16.6172 62.1191 16.2188C62.8223 15.8086 63.5605 15.6035 64.334 15.6035C64.8027 15.6035 65.2363 15.709 65.6348 15.9199C66.0332 16.1309 66.3789 16.3887 66.6719 16.6934C66.9766 16.9863 67.2285 17.3027 67.4277 17.6426C67.627 17.9707 67.7617 18.252 67.832 18.4863L68.043 16.7812C68.0664 16.5586 68.1719 16.3711 68.3594 16.2188C68.5586 16.0664 68.7754 15.9492 69.0098 15.8672C69.2441 15.7734 69.4727 15.709 69.6953 15.6738C69.918 15.627 70.0762 15.6035 70.1699 15.6035C70.3105 15.6035 70.4043 15.627 70.4512 15.6738C70.498 15.7207 70.5215 15.8145 70.5215 15.9551C70.5215 16.1309 70.4688 16.4883 70.3633 17.0273C70.2695 17.5547 70.1641 18.2344 70.0469 19.0664C69.9414 19.8867 69.8359 20.8535 69.7305 21.9668C69.6367 23.0801 69.5898 24.3047 69.5898 25.6406ZM67.6562 21C67.6562 20.4609 67.5742 19.9336 67.4102 19.418C67.2461 18.8906 67.0234 18.4277 66.7422 18.0293C66.4609 17.6191 66.1328 17.291 65.7578 17.0449C65.3945 16.7988 65.0078 16.6758 64.5977 16.6758C64.0938 16.6758 63.6191 16.8223 63.1738 17.1152C62.7402 17.3965 62.3594 17.8008 62.0312 18.3281C61.7148 18.8438 61.4629 19.4707 61.2754 20.209C61.0879 20.9355 60.9941 21.7383 60.9941 22.6172C60.9941 24.375 61.2695 25.7168 61.8203 26.6426C62.3711 27.5566 63.1035 28.0137 64.0176 28.0137C64.416 28.0137 64.8262 27.8555 65.248 27.5391C65.6816 27.2109 66.0742 26.748 66.4258 26.1504C66.7891 25.541 67.082 24.8027 67.3047 23.9355C67.5391 23.0684 67.6562 22.0898 67.6562 21Z" fill="white"/>
<path d="M77.8691 30C77.1543 30 76.5332 29.8477 76.0059 29.543C75.4902 29.2383 75.0625 28.8281 74.7227 28.3125C74.3828 27.7852 74.1309 27.1816 73.9668 26.502C73.8027 25.8223 73.7207 25.1016 73.7207 24.3398C73.7207 23.6719 73.7852 22.9922 73.9141 22.3008C74.043 21.6094 74.2246 20.9414 74.459 20.2969C74.7051 19.6406 75.0098 19.0312 75.373 18.4688C75.7363 17.8945 76.1523 17.3965 76.6211 16.9746C77.0898 16.5527 77.6113 16.2188 78.1855 15.9727C78.7715 15.7266 79.3984 15.6035 80.0664 15.6035C80.8281 15.6035 81.4727 15.7734 82 16.1133C82.5391 16.4531 82.9727 16.8691 83.3008 17.3613C83.3125 15.1465 83.4238 13.1895 83.6348 11.4902C83.8457 9.79102 84.1387 8.36719 84.5137 7.21875C84.9004 6.07031 85.3574 5.20312 85.8848 4.61719C86.4121 4.01953 86.9922 3.7207 87.625 3.7207C87.8477 3.7207 88.0469 3.75 88.2227 3.80859C88.4102 3.85547 88.5625 3.94922 88.6797 4.08984C88.8086 4.23047 88.9023 4.42383 88.9609 4.66992C89.0312 4.9043 89.0664 5.20898 89.0664 5.58398C89.0664 6.35742 88.9902 7.24805 88.8379 8.25586C88.6855 9.25195 88.4688 10.3418 88.1875 11.5254C87.9062 12.6973 87.5605 13.9512 87.1504 15.2871C86.752 16.6113 86.3066 17.9883 85.8145 19.418C85.8262 20.6719 85.8438 21.7559 85.8672 22.6699C85.8906 23.584 85.9199 24.3574 85.9551 24.9902C86.002 25.623 86.0547 26.1387 86.1133 26.5371C86.1836 26.9355 86.2598 27.2461 86.3418 27.4688C86.4355 27.6797 86.541 27.8262 86.6582 27.9082C86.7871 27.9785 86.9277 28.0137 87.0801 28.0137C87.3496 28.0137 87.6191 27.8965 87.8887 27.6621C88.1699 27.416 88.4688 27.0586 88.7852 26.5898C89.1016 26.1094 89.4414 25.5234 89.8047 24.832C90.1797 24.1406 90.5898 23.3438 91.0352 22.4414L91.2285 22.0723L91.9492 22.6172L91.7559 22.9863C91.0762 24.3574 90.4785 25.4941 89.9629 26.3965C89.4473 27.2871 88.9727 28.002 88.5391 28.541C88.1172 29.0801 87.7129 29.4609 87.3262 29.6836C86.9395 29.8945 86.5352 30 86.1133 30C85.7031 30 85.3457 29.9004 85.041 29.7012C84.748 29.4902 84.4961 29.168 84.2852 28.7344C84.0742 28.2891 83.9043 27.7266 83.7754 27.0469C83.6465 26.3555 83.5469 25.5293 83.4766 24.5684C83.0664 25.3887 82.6445 26.1328 82.2109 26.8008C81.7773 27.4688 81.3262 28.043 80.8574 28.5234C80.4004 28.9922 79.9199 29.3555 79.416 29.6133C78.9121 29.8711 78.3965 30 77.8691 30ZM80.418 16.5C79.7734 16.5 79.2109 16.6992 78.7305 17.0977C78.25 17.4844 77.8516 17.9941 77.5352 18.627C77.2188 19.248 76.9844 19.9512 76.832 20.7363C76.6797 21.5215 76.6035 22.3066 76.6035 23.0918C76.6035 23.7363 76.6504 24.3574 76.7441 24.9551C76.8496 25.541 77.002 26.0625 77.2012 26.5195C77.4121 26.9766 77.6641 27.3398 77.957 27.6094C78.25 27.8789 78.5898 28.0137 78.9766 28.0137C79.3516 28.0137 79.7148 27.9199 80.0664 27.7324C80.4297 27.5449 80.7871 27.2461 81.1387 26.8359C81.4902 26.4141 81.8477 25.875 82.2109 25.2188C82.5742 24.5508 82.9609 23.7422 83.3711 22.793C83.3477 22.2305 83.3301 21.6328 83.3184 21C83.3066 20.3555 83.3008 19.6699 83.3008 18.9434C83.043 18.1816 82.6504 17.584 82.123 17.1504C81.6074 16.7168 81.0391 16.5 80.418 16.5ZM87.8008 6.23438C87.8008 5.69531 87.7363 5.32031 87.6074 5.10938C87.4902 4.89844 87.3496 4.79297 87.1855 4.79297C86.9043 4.79297 86.6758 5.06836 86.5 5.61914C86.3242 6.1582 86.1836 6.89062 86.0781 7.81641C85.9844 8.74219 85.9141 9.81445 85.8672 11.0332C85.832 12.252 85.8145 13.5352 85.8145 14.8828V16.8164C86.1777 15.6328 86.4883 14.5664 86.7461 13.6172C87.0039 12.668 87.209 11.7832 87.3613 10.9629C87.5137 10.1426 87.625 9.35156 87.6953 8.58984C87.7656 7.82812 87.8008 7.04297 87.8008 6.23438Z" fill="white"/>
<path d="M96.4316 28.0137C96.8418 28.0137 97.2578 27.9082 97.6797 27.6973C98.1133 27.4863 98.5469 27.1582 98.9805 26.7129C99.4258 26.2676 99.8828 25.6934 100.352 24.9902C100.82 24.2754 101.301 23.4258 101.793 22.4414L101.969 22.0723L102.689 22.6172L102.514 22.9863C101.881 24.2402 101.248 25.3125 100.615 26.2031C99.9941 27.0938 99.3789 27.8203 98.7695 28.3828C98.1719 28.9453 97.5801 29.3555 96.9941 29.6133C96.4082 29.8711 95.8457 30 95.3066 30C94.5449 30 93.8652 29.8418 93.2676 29.5254C92.6699 29.209 92.166 28.7812 91.7559 28.2422C91.3457 27.6914 91.0352 27.0586 90.8242 26.3438C90.6016 25.6172 90.4902 24.8555 90.4902 24.0586C90.4902 22.793 90.666 21.6445 91.0176 20.6133C91.3574 19.5703 91.8145 18.6797 92.3887 17.9414C92.9746 17.2031 93.6367 16.6289 94.375 16.2188C95.1133 15.8086 95.8809 15.6035 96.6777 15.6035C97.4863 15.6035 98.1016 15.8086 98.5234 16.2188C98.957 16.6289 99.1738 17.1445 99.1738 17.7656C99.1738 18.3633 99.0039 18.9258 98.6641 19.4531C98.3242 19.9688 97.8613 20.4785 97.2754 20.9824C96.7012 21.4746 96.0332 21.9668 95.2715 22.459C94.5098 22.9395 93.707 23.4375 92.8633 23.9531C92.9453 24.5625 93.0859 25.1191 93.2852 25.623C93.4844 26.1152 93.7363 26.543 94.041 26.9062C94.3457 27.2578 94.6973 27.5332 95.0957 27.7324C95.4941 27.9199 95.9395 28.0137 96.4316 28.0137ZM96.9766 18.293C96.9766 17.8242 96.8477 17.4551 96.5898 17.1855C96.3438 16.916 96.0391 16.7812 95.6758 16.7812C95.3711 16.7812 95.0488 16.8926 94.709 17.1152C94.3691 17.3262 94.0586 17.6719 93.7773 18.1523C93.4961 18.6211 93.2617 19.2246 93.0742 19.9629C92.8867 20.7012 92.793 21.5977 92.793 22.6523V23.0566C93.1914 22.8457 93.6309 22.5703 94.1113 22.2305C94.6035 21.8789 95.0605 21.4922 95.4824 21.0703C95.9043 20.6484 96.2559 20.2031 96.5371 19.7344C96.8301 19.2539 96.9766 18.7734 96.9766 18.293Z" fill="white"/>
<path d="M119.617 25.8516C119.488 26.7656 119.301 27.5449 119.055 28.1895C118.809 28.8223 118.51 29.3438 118.158 29.7539C117.807 30.1523 117.402 30.4395 116.945 30.6152C116.5 30.8027 116.008 30.8965 115.469 30.8965C114.707 30.8965 113.992 30.6738 113.324 30.2285C112.668 29.7832 112.1 29.1211 111.619 28.2422C111.139 27.3633 110.758 26.2734 110.477 24.9727C110.207 23.6719 110.072 22.166 110.072 20.4551C110.072 18.6621 110.242 16.9219 110.582 15.2344C110.934 13.5469 111.426 11.9648 112.059 10.4883C112.703 9.01172 113.471 7.66406 114.361 6.44531C115.264 5.21484 116.266 4.16602 117.367 3.29883C118.48 2.41992 119.682 1.74023 120.971 1.25977C122.26 0.767578 123.607 0.521484 125.014 0.521484C126.221 0.521484 127.322 0.703125 128.318 1.06641C129.314 1.42969 130.17 1.93359 130.885 2.57812C131.6 3.22266 132.15 3.98438 132.537 4.86328C132.924 5.74219 133.117 6.69141 133.117 7.71094C133.117 8.94141 132.947 10.0898 132.607 11.1562C132.268 12.2109 131.793 13.1777 131.184 14.0566C130.586 14.9355 129.871 15.7207 129.039 16.4121C128.207 17.1035 127.299 17.6895 126.314 18.1699C125.342 18.6504 124.311 19.0254 123.221 19.2949C122.143 19.5527 121.047 19.6992 119.934 19.7344C119.898 21.1992 119.857 22.4355 119.811 23.4434C119.775 24.4395 119.711 25.2422 119.617 25.8516ZM116.559 18.4863C116.617 18.5098 116.688 18.5332 116.77 18.5566C116.84 18.5801 116.922 18.6035 117.016 18.627C117.121 18.6504 117.244 18.6738 117.385 18.6973C117.361 17.2324 117.332 15.8906 117.297 14.6719C117.273 13.4414 117.244 12.3691 117.209 11.4551C117.162 10.3887 117.121 9.42773 117.086 8.57227C117.168 8.50195 117.262 8.44336 117.367 8.39648C117.461 8.34961 117.572 8.30859 117.701 8.27344C117.83 8.23828 117.988 8.2207 118.176 8.2207C118.715 8.2207 119.148 8.32031 119.477 8.51953C119.805 8.70703 119.969 9.0293 119.969 9.48633C119.969 11.4199 119.969 13.1543 119.969 14.6895C119.969 16.2246 119.957 17.6074 119.934 18.8379C121.469 18.8379 122.857 18.5449 124.1 17.959C125.354 17.373 126.42 16.5938 127.299 15.6211C128.178 14.6367 128.857 13.5059 129.338 12.2285C129.818 10.9512 130.059 9.61523 130.059 8.2207C130.059 7.33008 129.936 6.48633 129.689 5.68945C129.455 4.88086 129.092 4.17773 128.6 3.58008C128.107 2.9707 127.486 2.49023 126.736 2.13867C125.998 1.77539 125.125 1.59375 124.117 1.59375C123.098 1.59375 122.09 1.78711 121.094 2.17383C120.109 2.56055 119.166 3.14062 118.264 3.91406C117.373 4.6875 116.547 5.64844 115.785 6.79688C115.035 7.94531 114.379 9.28711 113.816 10.8223C113.266 12.3574 112.832 14.0801 112.516 15.9902C112.211 17.8887 112.059 19.9805 112.059 22.2656C112.059 23.25 112.105 24.2109 112.199 25.1484C112.305 26.0742 112.475 26.9004 112.709 27.627C112.943 28.3418 113.254 28.916 113.641 29.3496C114.039 29.7832 114.531 30 115.117 30C115.434 30 115.732 29.9355 116.014 29.8066C116.295 29.6777 116.541 29.4141 116.752 29.0156C116.963 28.6055 117.133 28.0254 117.262 27.2754C117.391 26.5137 117.455 25.5 117.455 24.2344C117.455 23.4375 117.449 22.6523 117.438 21.8789C117.426 21.0938 117.42 20.332 117.42 19.5938C117.244 19.5703 117.092 19.541 116.963 19.5059C116.834 19.4707 116.723 19.4414 116.629 19.418C116.523 19.3828 116.436 19.3477 116.365 19.3125L116.559 18.4863Z" fill="white"/>
<path d="M131.5 22.4414L131.676 22.0723C131.852 21.7207 132.01 21.3574 132.15 20.9824C132.303 20.6074 132.432 20.2559 132.537 19.9277C132.643 19.5879 132.725 19.2891 132.783 19.0312C132.842 18.7617 132.883 18.5566 132.906 18.416C132.602 18.3809 132.309 18.3047 132.027 18.1875C131.746 18.0703 131.5 17.9121 131.289 17.7129C131.078 17.5137 130.914 17.2793 130.797 17.0098C130.668 16.7402 130.604 16.4355 130.604 16.0957C130.604 15.8262 130.65 15.5859 130.744 15.375C130.838 15.1641 130.967 14.9883 131.131 14.8477C131.283 14.707 131.459 14.6016 131.658 14.5312C131.846 14.4492 132.045 14.4082 132.256 14.4082C132.537 14.4082 132.783 14.4668 132.994 14.584C133.205 14.7012 133.381 14.8594 133.521 15.0586C133.662 15.2461 133.768 15.4688 133.838 15.7266C133.908 15.9727 133.943 16.2305 133.943 16.5C134.271 16.5 134.623 16.4531 134.998 16.3594C135.385 16.2656 135.771 16.166 136.158 16.0605C136.545 15.9434 136.926 15.8379 137.301 15.7441C137.676 15.6504 138.021 15.6035 138.338 15.6035C138.607 15.6035 138.824 15.6621 138.988 15.7793C139.152 15.8848 139.234 16.0664 139.234 16.3242C139.234 16.5117 139.176 16.8223 139.059 17.2559C138.953 17.6895 138.818 18.1934 138.654 18.7676C138.49 19.3418 138.309 19.9688 138.109 20.6484C137.922 21.3164 137.746 21.9961 137.582 22.6875C137.418 23.3672 137.277 24.0293 137.16 24.6738C137.055 25.3184 137.002 25.8926 137.002 26.3965C137.002 27.0293 137.072 27.457 137.213 27.6797C137.354 27.9023 137.605 28.0137 137.969 28.0137C138.121 28.0137 138.309 27.9492 138.531 27.8203C138.766 27.6797 139.047 27.416 139.375 27.0293C139.703 26.6309 140.09 26.0684 140.535 25.3418C140.992 24.6035 141.52 23.6367 142.117 22.4414L142.293 22.0723L143.014 22.6172L142.838 22.9863C142.135 24.3926 141.508 25.5469 140.957 26.4492C140.406 27.3516 139.896 28.0664 139.428 28.5938C138.971 29.1211 138.537 29.4902 138.127 29.7012C137.717 29.9004 137.307 30 136.896 30C136.205 30 135.643 29.7363 135.209 29.209C134.775 28.6816 134.559 27.8672 134.559 26.7656C134.559 26.168 134.641 25.5469 134.805 24.9023C134.969 24.2578 135.174 23.6191 135.42 22.9863C135.666 22.3418 135.941 21.709 136.246 21.0879C136.551 20.4668 136.838 19.8809 137.107 19.3301C137.389 18.7676 137.641 18.2461 137.863 17.7656C138.086 17.2852 138.244 16.8633 138.338 16.5L138.232 16.3945C138.045 16.3945 137.793 16.4941 137.477 16.6934C137.16 16.8926 136.803 17.1211 136.404 17.3789C136.018 17.625 135.602 17.8594 135.156 18.082C134.711 18.3047 134.26 18.4395 133.803 18.4863C133.779 18.6504 133.727 18.8906 133.645 19.207C133.574 19.5234 133.475 19.875 133.346 20.2617C133.217 20.6484 133.07 21.0469 132.906 21.457C132.742 21.8672 132.572 22.2539 132.396 22.6172L132.221 22.9863L131.5 22.4414ZM132.361 15.3926C132.256 15.3926 132.168 15.4277 132.098 15.498C132.027 15.5684 131.992 15.6504 131.992 15.7441C131.992 15.8848 132.027 16.0078 132.098 16.1133C132.168 16.207 132.256 16.2891 132.361 16.3594C132.467 16.418 132.572 16.4648 132.678 16.5C132.795 16.5234 132.895 16.5352 132.977 16.5352C132.977 16.207 132.924 15.9375 132.818 15.7266C132.713 15.5039 132.561 15.3926 132.361 15.3926Z" fill="white"/>
<path d="M157.023 22.6172L156.83 22.9863C156.432 23.7832 155.898 24.4219 155.23 24.9023C154.574 25.3711 153.859 25.6758 153.086 25.8164C152.875 26.4141 152.6 26.9707 152.26 27.4863C151.932 27.9902 151.551 28.4297 151.117 28.8047C150.695 29.1797 150.215 29.4727 149.676 29.6836C149.148 29.8945 148.574 30 147.953 30C147.051 30 146.236 29.8125 145.51 29.4375C144.795 29.0508 144.186 28.5352 143.682 27.8906C143.178 27.2344 142.791 26.4727 142.521 25.6055C142.252 24.7266 142.117 23.7891 142.117 22.793C142.117 21.9258 142.217 21.1406 142.416 20.4375C142.615 19.7227 142.867 19.0898 143.172 18.5391C143.477 17.9766 143.816 17.4902 144.191 17.0801C144.566 16.6582 144.936 16.3125 145.299 16.043C145.662 15.7734 145.99 15.5742 146.283 15.4453C146.588 15.3047 146.816 15.2344 146.969 15.2344L147.197 15.8496C146.717 16.2012 146.289 16.6934 145.914 17.3262C145.586 17.8652 145.287 18.5801 145.018 19.4707C144.76 20.3613 144.631 21.4688 144.631 22.793C144.631 23.6016 144.707 24.3867 144.859 25.1484C145.012 25.9102 145.234 26.584 145.527 27.1699C145.82 27.7559 146.178 28.2246 146.6 28.5762C147.033 28.9277 147.52 29.1035 148.059 29.1035C148.797 29.1035 149.406 28.8105 149.887 28.2246C150.379 27.627 150.742 26.8125 150.977 25.7812C150.367 25.6523 149.787 25.4121 149.236 25.0605C148.686 24.709 148.199 24.2754 147.777 23.7598C147.355 23.2324 147.016 22.6289 146.758 21.9492C146.512 21.2695 146.389 20.5312 146.389 19.7344C146.389 19.0781 146.471 18.5039 146.635 18.0117C146.811 17.5078 147.039 17.0918 147.32 16.7637C147.602 16.4238 147.924 16.1719 148.287 16.0078C148.662 15.832 149.055 15.7441 149.465 15.7441C149.945 15.7441 150.438 15.8848 150.941 16.166C151.445 16.4355 151.902 16.8457 152.312 17.3965C152.723 17.9355 153.057 18.6152 153.314 19.4355C153.572 20.2559 153.701 21.2109 153.701 22.3008C153.701 22.7109 153.678 23.1152 153.631 23.5137C153.584 23.9121 153.514 24.2988 153.42 24.6738C153.982 24.5098 154.492 24.2461 154.949 23.8828C155.418 23.5195 155.805 23.0391 156.109 22.4414L156.303 22.0723L157.023 22.6172ZM147.549 19.5938C147.549 20.2852 147.643 20.9238 147.83 21.5098C148.029 22.084 148.293 22.5938 148.621 23.0391C148.949 23.4727 149.33 23.8359 149.764 24.1289C150.197 24.4219 150.66 24.627 151.152 24.7441C151.211 24.416 151.246 24.0762 151.258 23.7246C151.281 23.3613 151.293 22.9922 151.293 22.6172C151.293 21.7852 151.229 21.0352 151.1 20.3672C150.971 19.6875 150.801 19.1133 150.59 18.6445C150.379 18.1641 150.133 17.7949 149.852 17.5371C149.57 17.2793 149.283 17.1504 148.99 17.1504C148.592 17.1504 148.252 17.3672 147.971 17.8008C147.689 18.2227 147.549 18.8203 147.549 19.5938Z" fill="white"/>
<path d="M157.393 16.3242C157.463 16.1836 157.58 16.0723 157.744 15.9902C157.92 15.8965 158.102 15.8203 158.289 15.7617C158.488 15.7031 158.676 15.6621 158.852 15.6387C159.027 15.6152 159.145 15.6035 159.203 15.6035C159.461 15.6035 159.613 15.6562 159.66 15.7617C159.719 15.8672 159.748 16.0547 159.748 16.3242V27.6973C160.346 26.9238 160.943 26.0918 161.541 25.2012C162.15 24.2988 162.689 23.3789 163.158 22.4414L163.334 22.0723L164.055 22.6172L163.879 22.9863C163.645 23.4551 163.363 23.9473 163.035 24.4629C162.719 24.9785 162.379 25.5059 162.016 26.0449C161.652 26.5723 161.271 27.0996 160.873 27.627C160.486 28.1543 160.111 28.6582 159.748 29.1387V33.0586C159.748 34.1367 159.648 35.0508 159.449 35.8008C159.262 36.5625 158.998 37.1777 158.658 37.6465C158.318 38.127 157.92 38.4727 157.463 38.6836C157.006 38.8945 156.508 39 155.969 39C155.629 39 155.318 38.9473 155.037 38.8418C154.744 38.7363 154.492 38.5781 154.281 38.3672C154.07 38.168 153.906 37.9219 153.789 37.6289C153.672 37.3477 153.613 37.0254 153.613 36.6621C153.613 36.1348 153.713 35.6074 153.912 35.0801C154.1 34.5527 154.369 34.0078 154.721 33.4453C155.061 32.8828 155.459 32.3027 155.916 31.7051C156.373 31.1191 156.865 30.5039 157.393 29.8594V22.2656H157.217L156.865 22.9863L156.145 22.4414L156.32 22.0723C156.613 21.4746 156.818 20.877 156.936 20.2793C157.064 19.6699 157.146 19.1016 157.182 18.5742C157.229 18.0469 157.252 17.584 157.252 17.1855C157.264 16.7871 157.311 16.5 157.393 16.3242ZM155.775 37.9277C155.963 37.9277 156.15 37.8867 156.338 37.8047C156.537 37.7344 156.713 37.5645 156.865 37.2949C157.018 37.0254 157.141 36.627 157.234 36.0996C157.34 35.5723 157.393 34.8574 157.393 33.9551V31.3008C156.994 31.793 156.631 32.2676 156.303 32.7246C155.963 33.1934 155.67 33.6445 155.424 34.0781C155.178 34.5234 154.984 34.9512 154.844 35.3613C154.703 35.7715 154.633 36.1699 154.633 36.5566C154.633 36.9199 154.732 37.2363 154.932 37.5059C155.131 37.7871 155.412 37.9277 155.775 37.9277ZM160.1 12C160.1 12.4102 159.959 12.7559 159.678 13.0371C159.408 13.3066 159.068 13.4414 158.658 13.4414C158.26 13.4414 157.92 13.3066 157.639 13.0371C157.357 12.7559 157.217 12.4102 157.217 12C157.217 11.6016 157.357 11.2617 157.639 10.9805C157.92 10.6992 158.26 10.5586 158.658 10.5586C159.068 10.5586 159.408 10.6992 159.678 10.9805C159.959 11.2617 160.1 11.6016 160.1 12Z" fill="white"/>
<path d="M168.537 28.0137C168.947 28.0137 169.363 27.9082 169.785 27.6973C170.219 27.4863 170.652 27.1582 171.086 26.7129C171.531 26.2676 171.988 25.6934 172.457 24.9902C172.926 24.2754 173.406 23.4258 173.898 22.4414L174.074 22.0723L174.795 22.6172L174.619 22.9863C173.986 24.2402 173.354 25.3125 172.721 26.2031C172.1 27.0938 171.484 27.8203 170.875 28.3828C170.277 28.9453 169.686 29.3555 169.1 29.6133C168.514 29.8711 167.951 30 167.412 30C166.65 30 165.971 29.8418 165.373 29.5254C164.775 29.209 164.271 28.7812 163.861 28.2422C163.451 27.6914 163.141 27.0586 162.93 26.3438C162.707 25.6172 162.596 24.8555 162.596 24.0586C162.596 22.793 162.771 21.6445 163.123 20.6133C163.463 19.5703 163.92 18.6797 164.494 17.9414C165.08 17.2031 165.742 16.6289 166.48 16.2188C167.219 15.8086 167.986 15.6035 168.783 15.6035C169.592 15.6035 170.207 15.8086 170.629 16.2188C171.062 16.6289 171.279 17.1445 171.279 17.7656C171.279 18.3633 171.109 18.9258 170.77 19.4531C170.43 19.9688 169.967 20.4785 169.381 20.9824C168.807 21.4746 168.139 21.9668 167.377 22.459C166.615 22.9395 165.812 23.4375 164.969 23.9531C165.051 24.5625 165.191 25.1191 165.391 25.623C165.59 26.1152 165.842 26.543 166.146 26.9062C166.451 27.2578 166.803 27.5332 167.201 27.7324C167.6 27.9199 168.045 28.0137 168.537 28.0137ZM169.082 18.293C169.082 17.8242 168.953 17.4551 168.695 17.1855C168.449 16.916 168.145 16.7812 167.781 16.7812C167.477 16.7812 167.154 16.8926 166.814 17.1152C166.475 17.3262 166.164 17.6719 165.883 18.1523C165.602 18.6211 165.367 19.2246 165.18 19.9629C164.992 20.7012 164.898 21.5977 164.898 22.6523V23.0566C165.297 22.8457 165.736 22.5703 166.217 22.2305C166.709 21.8789 167.166 21.4922 167.588 21.0703C168.01 20.6484 168.361 20.2031 168.643 19.7344C168.936 19.2539 169.082 18.7734 169.082 18.293Z" fill="white"/>
<path d="M180.016 19.9629C180.156 19.7402 180.273 19.4648 180.367 19.1367C180.473 18.8086 180.525 18.4805 180.525 18.1523C180.525 17.7539 180.426 17.4082 180.227 17.1152C180.027 16.8223 179.67 16.6758 179.154 16.6758C178.814 16.6758 178.469 16.7988 178.117 17.0449C177.766 17.291 177.438 17.6602 177.133 18.1523C176.84 18.6445 176.6 19.2656 176.412 20.0156C176.225 20.7656 176.131 21.6445 176.131 22.6523C176.131 23.4492 176.213 24.1758 176.377 24.832C176.541 25.4883 176.781 26.0508 177.098 26.5195C177.414 26.9883 177.795 27.3574 178.24 27.627C178.697 27.8848 179.207 28.0137 179.77 28.0137C180.18 28.0137 180.596 27.9082 181.018 27.6973C181.451 27.4863 181.885 27.1582 182.318 26.7129C182.764 26.2676 183.221 25.6934 183.689 24.9902C184.158 24.2754 184.639 23.4258 185.131 22.4414L185.307 22.0723L186.027 22.6172L185.852 22.9863C185.219 24.2402 184.586 25.3125 183.953 26.2031C183.332 27.0938 182.717 27.8203 182.107 28.3828C181.498 28.9453 180.9 29.3555 180.314 29.6133C179.74 29.8711 179.184 30 178.645 30C177.883 30 177.203 29.8418 176.605 29.5254C176.008 29.209 175.504 28.7812 175.094 28.2422C174.684 27.6914 174.367 27.0586 174.145 26.3438C173.934 25.6172 173.828 24.8555 173.828 24.0586C173.828 22.793 173.998 21.6445 174.338 20.6133C174.689 19.5703 175.141 18.6797 175.691 17.9414C176.242 17.2031 176.863 16.6289 177.555 16.2188C178.246 15.8086 178.943 15.6035 179.646 15.6035C180.186 15.6035 180.637 15.6797 181 15.832C181.363 15.9844 181.656 16.1777 181.879 16.4121C182.102 16.6465 182.26 16.8984 182.354 17.168C182.447 17.4375 182.494 17.6953 182.494 17.9414C182.494 18.1875 182.441 18.4453 182.336 18.7148C182.23 18.9727 182.072 19.2188 181.861 19.4531C181.662 19.6758 181.422 19.8809 181.141 20.0684C180.859 20.2441 180.543 20.373 180.191 20.4551L180.016 19.9629Z" fill="white"/>
<path d="M185.254 24.2344C185.254 22.9922 185.301 21.7441 185.395 20.4902C185.488 19.2363 185.611 17.9648 185.764 16.6758H184.164L184.357 15.6035H185.904C186.068 14.4082 186.232 13.2129 186.396 12.0176C186.572 10.8105 186.73 9.60352 186.871 8.39648H188.664C188.641 8.6543 188.605 9.0293 188.559 9.52148C188.523 10.002 188.477 10.5645 188.418 11.209C188.371 11.8418 188.324 12.5391 188.277 13.3008C188.23 14.0508 188.184 14.8184 188.137 15.6035H191.547L191.371 16.6758H188.066C188.02 17.3438 187.979 18 187.943 18.6445C187.908 19.2891 187.873 19.9043 187.838 20.4902C187.814 21.0645 187.797 21.5977 187.785 22.0898C187.773 22.5703 187.768 22.9863 187.768 23.3379C187.768 24.2285 187.791 24.9727 187.838 25.5703C187.896 26.168 187.979 26.6484 188.084 27.0117C188.201 27.375 188.342 27.6328 188.506 27.7852C188.682 27.9375 188.881 28.0137 189.104 28.0137C189.396 28.0137 189.719 27.8672 190.07 27.5742C190.434 27.2695 190.809 26.8652 191.195 26.3613C191.582 25.8574 191.975 25.2715 192.373 24.6035C192.771 23.9238 193.158 23.2031 193.533 22.4414L193.709 22.0723L194.43 22.6172L194.254 22.9863C193.715 24.0762 193.176 25.0547 192.637 25.9219C192.109 26.7891 191.588 27.5273 191.072 28.1367C190.557 28.7344 190.053 29.1973 189.561 29.5254C189.068 29.8418 188.594 30 188.137 30C187.68 30 187.27 29.8945 186.906 29.6836C186.555 29.4727 186.256 29.1387 186.01 28.6816C185.764 28.2129 185.576 27.6152 185.447 26.8887C185.318 26.1621 185.254 25.2773 185.254 24.2344Z" fill="white"/>
</svg>
