<svg width="212" height="213" viewBox="0 0 212 213" fill="none" xmlns="http://www.w3.org/2000/svg">
<path d="M92.2891 82.9091C92.2891 84.0931 91.8706 85.0831 91.0337 85.8792C90.1967 86.6753 89.0434 87.0734 87.5736 87.0734C86.1039 87.0734 84.9505 86.6753 84.1135 85.8792C83.2766 85.0831 82.8581 84.0931 82.8581 82.9091C82.8581 81.7251 83.2766 80.7351 84.1135 79.9389C84.9505 79.1428 86.1039 78.7448 87.5736 78.7448C89.0434 78.7448 90.1967 79.1428 91.0337 79.9389C91.8706 80.7351 92.2891 81.7251 92.2891 82.9091Z" fill="#3C9CD7"/>
<path d="M126.43 70.8448C127.165 71.6817 127.665 72.4983 127.931 73.2944C128.196 74.0701 128.329 75.3357 128.329 77.0913V87.0734C128.329 87.9104 128.482 88.5023 128.788 88.8494C129.115 89.2168 129.707 89.4312 130.564 89.4924C131.422 89.574 132.126 89.9109 132.677 90.5029C133.228 91.0948 133.504 91.8195 133.504 92.6769C133.504 93.5751 133.187 94.3304 132.554 94.9428C131.942 95.5552 131.156 95.8614 130.197 95.8614C128.829 95.8614 127.512 95.4939 126.247 94.759C124.981 94.0446 123.879 92.8708 122.94 91.2377C122.348 90.1762 122.052 88.9412 122.052 87.5327V76.4789C122.052 75.6011 121.909 74.9989 121.623 74.6723C121.337 74.3457 120.725 74.1313 119.786 74.0293C118.847 73.9068 118.122 73.57 117.612 73.0188C117.122 72.4676 116.877 71.743 116.877 70.8448C116.877 69.9262 117.122 69.1913 117.612 68.6401C118.122 68.089 118.847 67.7624 119.786 67.6603C120.745 67.5378 121.327 67.3439 121.531 67.0785C121.878 66.6702 122.052 66.0374 122.052 65.1801V54.708C122.052 52.4625 122.868 50.5233 124.501 48.8902C126.134 47.2367 128.023 46.41 130.166 46.41C131.146 46.41 131.942 46.7162 132.554 47.3286C133.187 47.941 133.504 48.6963 133.504 49.5945C133.504 50.4314 133.228 51.1459 132.677 51.7379C132.126 52.3299 131.411 52.6667 130.534 52.7483C129.656 52.83 129.105 53.0137 128.88 53.2995C128.513 53.7282 128.329 54.361 128.329 55.1979V65.1801C128.329 66.5886 128.186 67.6807 127.9 68.4564C127.635 69.2117 127.145 70.0078 126.43 70.8448Z" fill="#3C9CD7"/>
<path d="M86.0732 141.393C85.3588 140.556 84.8586 139.75 84.5729 138.974C84.3075 138.178 84.1748 137.096 84.1748 135.729V125.747C84.1748 124.91 84.0115 124.318 83.6849 123.971C83.3787 123.603 82.7969 123.379 81.9395 123.297C81.0822 123.215 80.3779 122.878 79.8267 122.286C79.2756 121.694 79 120.98 79 120.143C79 119.245 79.3062 118.49 79.9186 117.877C80.5514 117.265 81.3475 116.959 82.307 116.959C83.6747 116.959 84.9913 117.326 86.257 118.061C87.5226 118.775 88.6249 119.949 89.5639 121.582C90.1559 122.644 90.4519 123.869 90.4519 125.257V135.729C90.4519 136.606 90.5948 137.219 90.8806 137.566C91.1664 137.892 91.7788 138.107 92.7178 138.209C93.6568 138.311 94.3713 138.638 94.8612 139.189C95.3715 139.74 95.6267 140.475 95.6267 141.393C95.6267 142.292 95.3715 143.016 94.8612 143.567C94.3713 144.119 93.6466 144.455 92.6872 144.578C91.7481 144.68 91.1766 144.864 90.9724 145.129C90.6254 145.537 90.4519 146.17 90.4519 147.027V158.081C90.4519 160.347 89.6354 162.297 88.0023 163.93C86.3692 165.583 84.481 166.41 82.3376 166.41C81.3577 166.41 80.5514 166.104 79.9186 165.491C79.3062 164.879 79 164.124 79 163.225C79 162.389 79.2756 161.674 79.8267 161.082C80.3779 160.49 81.0924 160.153 81.9701 160.072C82.8479 159.99 83.3991 159.806 83.6236 159.52C83.9911 159.092 84.1748 158.459 84.1748 157.622V147.64C84.1748 145.884 84.2973 144.619 84.5422 143.843C84.8076 143.067 85.3179 142.251 86.0732 141.393Z" fill="#3C9CD7"/>
</svg>
