<svg width="212" height="213" viewBox="0 0 212 213" fill="none" xmlns="http://www.w3.org/2000/svg">
<path d="M34.2188 118.394C34.2188 119.301 33.8984 120.058 33.2578 120.668C32.6172 121.277 31.7344 121.582 30.6094 121.582C29.4844 121.582 28.6016 121.277 27.9609 120.668C27.3203 120.058 27 119.301 27 118.394C27 117.488 27.3203 116.73 27.9609 116.121C28.6016 115.512 29.4844 115.207 30.6094 115.207C31.7344 115.207 32.6172 115.512 33.2578 116.121C33.8984 116.73 34.2188 117.488 34.2188 118.394Z" fill="#3C9CD7"/>
<path d="M66.8672 100.394C67.4453 99.8475 68.0391 99.574 68.6484 99.574C69.3359 99.574 69.8984 99.824 70.3359 100.324C70.7891 100.808 71.0156 101.621 71.0156 102.762V105.855C71.0156 107.012 70.7891 107.832 70.3359 108.316C69.8984 108.801 69.3203 109.043 68.6016 109.043C67.9453 109.043 67.3906 108.855 66.9375 108.48C66.6094 108.199 66.3516 107.629 66.1641 106.769C65.9766 105.894 65.5234 105.246 64.8047 104.824C63.5391 104.074 61.9219 103.699 59.9531 103.699C57.6875 103.699 55.8672 104.363 54.4922 105.691C53.1328 107.019 52.4531 108.699 52.4531 110.73C52.4531 112.605 53.1094 114.09 54.4219 115.183C55.7344 116.262 57.9141 116.801 60.9609 116.801C62.9609 116.801 64.5938 116.597 65.8594 116.191C66.6094 115.941 67.3203 115.519 67.9922 114.926C68.6641 114.316 69.2734 114.012 69.8203 114.012C70.4766 114.012 71.0391 114.254 71.5078 114.738C71.9922 115.222 72.2344 115.793 72.2344 116.449C72.2344 117.512 71.5078 118.519 70.0547 119.472C67.8984 120.894 64.7422 121.605 60.5859 121.605C56.8516 121.605 53.9453 120.832 51.8672 119.285C49.0547 117.207 47.6484 114.363 47.6484 110.754C47.6484 107.332 48.7891 104.504 51.0703 102.269C53.3516 100.019 56.3281 98.8943 60 98.8943C61.3281 98.8943 62.5625 99.0193 63.7031 99.2693C64.8438 99.5193 65.8984 99.8943 66.8672 100.394Z" fill="#3C9CD7"/>
<path d="M90.6094 90.41V116.004H96.375C97.5312 116.004 98.3516 116.23 98.8359 116.683C99.3359 117.121 99.5859 117.699 99.5859 118.418C99.5859 119.121 99.3359 119.699 98.8359 120.152C98.3516 120.59 97.5312 120.808 96.375 120.808H80.0391C78.8828 120.808 78.0547 120.59 77.5547 120.152C77.0703 119.699 76.8281 119.113 76.8281 118.394C76.8281 117.691 77.0703 117.121 77.5547 116.683C78.0547 116.23 78.8828 116.004 80.0391 116.004H85.8047V95.2147H81.9375C80.7969 95.2147 79.9766 94.9959 79.4766 94.5584C78.9766 94.1053 78.7266 93.5193 78.7266 92.8006C78.7266 92.0975 78.9688 91.5272 79.4531 91.0897C79.9531 90.6365 80.7812 90.41 81.9375 90.41H90.6094Z" fill="#3C9CD7"/>
<path d="M121.359 120.808V119.683C120.156 120.324 118.828 120.801 117.375 121.113C115.922 121.441 114.602 121.605 113.414 121.605C110.836 121.605 108.742 120.926 107.133 119.566C105.523 118.191 104.719 116.676 104.719 115.019C104.719 113.004 105.742 111.137 107.789 109.418C109.852 107.683 112.695 106.816 116.32 106.816C117.773 106.816 119.453 106.972 121.359 107.285V106.137C121.359 105.418 121.047 104.832 120.422 104.379C119.812 103.926 118.641 103.699 116.906 103.699C115.484 103.699 113.641 103.98 111.375 104.543C110.531 104.746 109.875 104.847 109.406 104.847C108.766 104.847 108.219 104.621 107.766 104.168C107.328 103.699 107.109 103.105 107.109 102.387C107.109 101.98 107.188 101.629 107.344 101.332C107.5 101.035 107.719 100.801 108 100.629C108.281 100.441 108.867 100.222 109.758 99.9725C110.945 99.6443 112.156 99.3865 113.391 99.199C114.625 98.9959 115.742 98.8943 116.742 98.8943C119.727 98.8943 122.039 99.5428 123.68 100.84C125.336 102.121 126.164 103.879 126.164 106.113V116.004H126.984C128.141 116.004 128.961 116.23 129.445 116.683C129.945 117.121 130.195 117.699 130.195 118.418C130.195 119.121 129.945 119.699 129.445 120.152C128.961 120.59 128.141 120.808 126.984 120.808H121.359ZM121.359 112.207C119.438 111.832 117.664 111.644 116.039 111.644C114.086 111.644 112.406 112.121 111 113.074C110.125 113.683 109.688 114.301 109.688 114.926C109.688 115.379 109.898 115.746 110.32 116.027C111.102 116.543 112.172 116.801 113.531 116.801C114.688 116.801 115.992 116.574 117.445 116.121C118.914 115.668 120.219 115.051 121.359 114.269V112.207Z" fill="#3C9CD7"/>
<path d="M151.055 105.152C150.273 104.668 149.453 104.308 148.594 104.074C147.734 103.824 146.836 103.699 145.898 103.699C144.039 103.699 142.562 104.004 141.469 104.613C140.984 104.879 140.742 105.168 140.742 105.48C140.742 105.84 141.07 106.191 141.727 106.535C142.227 106.785 143.344 107.027 145.078 107.262C148.266 107.699 150.484 108.137 151.734 108.574C153.375 109.152 154.641 110.012 155.531 111.152C156.422 112.293 156.867 113.496 156.867 114.762C156.867 116.48 156.109 117.918 154.594 119.074C152.422 120.746 149.602 121.582 146.133 121.582C144.742 121.582 143.453 121.457 142.266 121.207C141.094 120.972 140.016 120.621 139.031 120.152C138.797 120.355 138.547 120.512 138.281 120.621C138.016 120.73 137.742 120.785 137.461 120.785C136.711 120.785 136.109 120.543 135.656 120.058C135.219 119.558 135 118.73 135 117.574V115.957C135 114.801 135.219 113.98 135.656 113.496C136.109 112.996 136.695 112.746 137.414 112.746C137.992 112.746 138.477 112.91 138.867 113.238C139.258 113.551 139.562 114.097 139.781 114.879C140.516 115.504 141.398 115.98 142.43 116.308C143.461 116.621 144.648 116.777 145.992 116.777C148.195 116.777 149.906 116.433 151.125 115.746C151.703 115.402 151.992 115.043 151.992 114.668C151.992 114.043 151.578 113.527 150.75 113.121C149.922 112.715 148.211 112.371 145.617 112.09C141.758 111.683 139.18 110.902 137.883 109.746C136.586 108.605 135.938 107.199 135.938 105.527C135.938 103.808 136.664 102.379 138.117 101.238C140.086 99.6756 142.664 98.8943 145.852 98.8943C146.961 98.8943 148.023 99.0037 149.039 99.2225C150.07 99.4256 151.055 99.7459 151.992 100.183C152.289 99.9647 152.562 99.8006 152.812 99.6912C153.078 99.5818 153.32 99.5272 153.539 99.5272C154.195 99.5272 154.742 99.7772 155.18 100.277C155.617 100.762 155.836 101.582 155.836 102.738V103.91C155.836 104.957 155.711 105.668 155.461 106.043C154.961 106.762 154.281 107.121 153.422 107.121C152.844 107.121 152.336 106.941 151.898 106.582C151.461 106.222 151.18 105.746 151.055 105.152Z" fill="#3C9CD7"/>
<path d="M179.883 105.152C179.102 104.668 178.281 104.308 177.422 104.074C176.562 103.824 175.664 103.699 174.727 103.699C172.867 103.699 171.391 104.004 170.297 104.613C169.812 104.879 169.57 105.168 169.57 105.48C169.57 105.84 169.898 106.191 170.555 106.535C171.055 106.785 172.172 107.027 173.906 107.262C177.094 107.699 179.312 108.137 180.562 108.574C182.203 109.152 183.469 110.012 184.359 111.152C185.25 112.293 185.695 113.496 185.695 114.762C185.695 116.48 184.938 117.918 183.422 119.074C181.25 120.746 178.43 121.582 174.961 121.582C173.57 121.582 172.281 121.457 171.094 121.207C169.922 120.972 168.844 120.621 167.859 120.152C167.625 120.355 167.375 120.512 167.109 120.621C166.844 120.73 166.57 120.785 166.289 120.785C165.539 120.785 164.938 120.543 164.484 120.058C164.047 119.558 163.828 118.73 163.828 117.574V115.957C163.828 114.801 164.047 113.98 164.484 113.496C164.938 112.996 165.523 112.746 166.242 112.746C166.82 112.746 167.305 112.91 167.695 113.238C168.086 113.551 168.391 114.097 168.609 114.879C169.344 115.504 170.227 115.98 171.258 116.308C172.289 116.621 173.477 116.777 174.82 116.777C177.023 116.777 178.734 116.433 179.953 115.746C180.531 115.402 180.82 115.043 180.82 114.668C180.82 114.043 180.406 113.527 179.578 113.121C178.75 112.715 177.039 112.371 174.445 112.09C170.586 111.683 168.008 110.902 166.711 109.746C165.414 108.605 164.766 107.199 164.766 105.527C164.766 103.808 165.492 102.379 166.945 101.238C168.914 99.6756 171.492 98.8943 174.68 98.8943C175.789 98.8943 176.852 99.0037 177.867 99.2225C178.898 99.4256 179.883 99.7459 180.82 100.183C181.117 99.9647 181.391 99.8006 181.641 99.6912C181.906 99.5818 182.148 99.5272 182.367 99.5272C183.023 99.5272 183.57 99.7772 184.008 100.277C184.445 100.762 184.664 101.582 184.664 102.738V103.91C184.664 104.957 184.539 105.668 184.289 106.043C183.789 106.762 183.109 107.121 182.25 107.121C181.672 107.121 181.164 106.941 180.727 106.582C180.289 106.222 180.008 105.746 179.883 105.152Z" fill="#3C9CD7"/>
</svg>
