<svg width="10" height="21" viewBox="0 0 10 21" fill="none" xmlns="http://www.w3.org/2000/svg">
<path d="M2.0625 20.1599C2.0625 20.2849 2.1875 20.4099 2.3125 20.4099H5.875C6 20.4099 6.125 20.2849 6.125 20.1599V10.3474H8.75C8.875 10.3474 9 10.2224 9 10.0974L9.25 7.15991C9.25 7.03491 9.1875 6.90991 9 6.90991H6.125V4.78491C6.125 4.28491 6.5 3.90991 7 3.90991H9C9.125 3.90991 9.25 3.78491 9.25 3.65991V0.659912C9.25 0.534912 9.125 0.409912 9 0.409912H5.625C3.625 0.409912 2 2.03491 2 4.03491V6.90991H0.25C0.125 6.90991 0 7.03491 0 7.15991V10.0974C0 10.2224 0.125 10.3474 0.25 10.3474H2.0625V20.1599Z" fill="white"/>
</svg>
