<svg width="21" height="21" viewBox="0 0 21 21" fill="none" xmlns="http://www.w3.org/2000/svg">
<path d="M18.3692 14.4538C18.3692 16.7735 16.4883 18.5918 14.2313 18.5918H6.26881C3.94906 18.5918 2.13088 16.7108 2.13088 14.4538V6.49141C2.13088 4.17165 4.01175 2.35355 6.26881 2.35355H14.2313C16.551 2.35355 18.3692 4.23434 18.3692 6.49141C18.3692 6.42871 18.3692 14.4538 18.3692 14.4538ZM20.2501 6.4288C20.2501 3.10591 17.5542 0.409912 14.2313 0.409912H6.26881C2.94592 0.409912 0.25 3.10591 0.25 6.4288V14.3912C0.25 17.7141 2.94592 20.4099 6.26881 20.4099H14.2313C17.5542 20.4099 20.2501 17.7141 20.2501 14.3912V6.4288ZM10.2814 13.7642C8.52589 13.7642 7.08389 12.3221 7.08389 10.5667C7.08389 8.81116 8.52589 7.36924 10.2814 7.36924C12.0369 7.36924 13.4789 8.81116 13.4789 10.5667C13.4162 12.3221 11.9742 13.7642 10.2814 13.7642ZM10.2814 5.61372C7.52275 5.61372 5.32837 7.80802 5.32837 10.5667C5.32837 13.3253 7.52275 15.5197 10.2814 15.5197C13.04 15.5197 15.2344 13.3253 15.2344 10.5667C15.1717 7.80802 12.9773 5.61372 10.2814 5.61372ZM15.4852 4.10892C14.8582 4.10892 14.2939 4.61058 14.2939 5.30024C14.2939 5.9272 14.7955 6.49141 15.4852 6.49141C16.1121 6.49141 16.6764 5.9899 16.6764 5.30024C16.6764 4.61058 16.1748 4.10892 15.4852 4.10892Z" fill="white"/>
</svg>
