<svg width="212" height="213" viewBox="0 0 212 213" fill="none" xmlns="http://www.w3.org/2000/svg">
<path d="M106 34.41L107.905 32.7914L106 30.5484L104.095 32.7914L106 34.41ZM137.879 127.142C137.455 125.828 136.047 125.107 134.732 125.531C133.418 125.955 132.697 127.363 133.121 128.677L137.879 127.142ZM112.785 163.419C111.41 163.538 110.391 164.749 110.509 166.125C110.628 167.5 111.839 168.519 113.215 168.401L112.785 163.419ZM104.095 32.7914C86.9374 52.9891 66.3107 89.6231 60.2554 121.404C57.2323 137.27 57.7484 152.413 64.7051 163.678C71.7773 175.129 85.0683 181.91 106 181.91V176.91C86.1593 176.91 74.8275 170.553 68.9593 161.051C62.9756 151.362 62.2335 137.736 65.1671 122.34C71.025 91.5946 91.1708 55.7286 107.905 36.0285L104.095 32.7914ZM104.095 36.0285C120.829 55.7286 140.975 91.5946 146.833 122.34C149.766 137.736 149.024 151.362 143.041 161.051C137.172 170.553 125.841 176.91 106 176.91V181.91C126.932 181.91 140.223 175.129 147.295 163.678C154.252 152.413 154.768 137.27 151.745 121.404C145.689 89.6231 125.063 52.9891 107.905 32.7914L104.095 36.0285ZM133.121 128.677C135.479 135.989 135.58 144.321 132.552 150.931C129.601 157.372 123.548 162.491 112.785 163.419L113.215 168.401C125.652 167.329 133.349 161.198 137.098 153.014C140.77 144.999 140.521 135.331 137.879 127.142L133.121 128.677Z" fill="#3C9CD7"/>
</svg>
