<svg width="21" height="21" viewBox="0 0 21 21" fill="none" xmlns="http://www.w3.org/2000/svg">
<path d="M20.25 10.1599C20.25 15.5349 15.875 19.9099 10.4375 19.9099C8.6875 19.9099 7.125 19.4724 5.6875 18.7224L0.25 20.4099L2 15.1599C1.125 13.7224 0.5625 11.9724 0.5625 10.1599C0.625 4.78491 5 0.409912 10.4375 0.409912C15.875 0.409912 20.25 4.78491 20.25 10.1599ZM10.4375 1.97241C5.875 1.97241 2.1875 5.65991 2.1875 10.1599C2.1875 11.9724 2.75 13.5974 3.75 14.9724L2.75 18.0349L5.875 16.9724C7.1875 17.8474 8.75 18.3474 10.4375 18.3474C15 18.3474 18.6875 14.6599 18.6875 10.1599C18.6875 5.65991 15 1.97241 10.4375 1.97241ZM15.375 12.4099C15.3125 12.2849 15.125 12.2224 14.9375 12.1599C14.6875 12.0349 13.5 11.4724 13.3125 11.4099C13.0625 11.3474 12.9375 11.2849 12.75 11.5349C12.5625 11.7849 12.125 12.2849 12 12.4724C11.875 12.6599 11.75 12.6599 11.5 12.5349C11.25 12.4099 10.5 12.1599 9.5625 11.3474C8.875 10.7224 8.375 9.90991 8.25 9.72241C8.125 9.47241 8.25 9.34741 8.375 9.22241C8.5 9.09741 8.625 8.97241 8.75 8.78491C8.875 8.65991 8.9375 8.53491 9 8.40991C9.0625 8.22241 9.0625 8.09741 9 7.97241C8.9375 7.84741 8.4375 6.65991 8.25 6.22241C8.0625 5.72241 7.875 5.84741 7.6875 5.84741C7.5625 5.84741 7.375 5.84741 7.25 5.84741C7.125 5.84741 6.6875 5.78491 6.5 6.03491C6.25 6.28491 5.6875 6.84741 5.6875 8.03491C5.6875 9.22241 6.5625 10.3474 6.6875 10.5349C6.8125 10.7224 8.375 13.1599 10.8125 14.1599C13.25 15.0974 13.25 14.7849 13.6875 14.7849C14.125 14.7224 15.125 14.2224 15.3125 13.6599C15.4375 12.9724 15.4375 12.4724 15.375 12.4099Z" fill="white"/>
</svg>
